<mxfile host="app.diagrams.net" modified="2023-10-09T10:49:50.010Z" agent="Mozilla/5.0 (Macintosh; Intel Mac OS X 10_15_7) AppleWebKit/537.36 (KHTML, like Gecko) Chrome/117.0.0.0 Safari/537.36" etag="zpQ0xrqiLLnvOfTvpN6a" version="22.0.4" type="github">
  <diagram name="Page-1" id="OvvoKKy10x0kGAaWaokc">
    <mxGraphModel dx="1026" dy="576" grid="1" gridSize="10" guides="1" tooltips="1" connect="1" arrows="1" fold="1" page="1" pageScale="1" pageWidth="850" pageHeight="1100" math="0" shadow="0">
      <root>
        <mxCell id="0" />
        <mxCell id="1" parent="0" />
        <mxCell id="pZgdfJ_zKTqpzOzUL0iS-36" value="gg&amp;nbsp;" style="rounded=1;whiteSpace=wrap;html=1;absoluteArcSize=1;arcSize=14;strokeWidth=2;" parent="1" vertex="1">
          <mxGeometry x="140" y="55" width="510" height="630" as="geometry" />
        </mxCell>
        <mxCell id="pZgdfJ_zKTqpzOzUL0iS-39" value="" style="edgeStyle=orthogonalEdgeStyle;rounded=0;orthogonalLoop=1;jettySize=auto;html=1;fillColor=#d5e8d4;strokeColor=#82b366;" parent="1" source="pZgdfJ_zKTqpzOzUL0iS-2" target="pZgdfJ_zKTqpzOzUL0iS-3" edge="1">
          <mxGeometry relative="1" as="geometry" />
        </mxCell>
        <mxCell id="pZgdfJ_zKTqpzOzUL0iS-2" value="Start" style="strokeWidth=2;html=1;shape=mxgraph.flowchart.start_2;whiteSpace=wrap;fillColor=#dae8fc;strokeColor=#6c8ebf;" parent="1" vertex="1">
          <mxGeometry x="280" y="70" width="70" height="60" as="geometry" />
        </mxCell>
        <mxCell id="pZgdfJ_zKTqpzOzUL0iS-40" value="" style="edgeStyle=orthogonalEdgeStyle;rounded=0;orthogonalLoop=1;jettySize=auto;html=1;fillColor=#d5e8d4;strokeColor=#82b366;" parent="1" source="pZgdfJ_zKTqpzOzUL0iS-3" target="pZgdfJ_zKTqpzOzUL0iS-5" edge="1">
          <mxGeometry relative="1" as="geometry" />
        </mxCell>
        <mxCell id="pZgdfJ_zKTqpzOzUL0iS-3" value="User Open Work Bench Checklist View" style="rounded=1;whiteSpace=wrap;html=1;absoluteArcSize=1;arcSize=14;strokeWidth=2;fillColor=#d5e8d4;strokeColor=#82b366;" parent="1" vertex="1">
          <mxGeometry x="425" y="80" width="160" height="40" as="geometry" />
        </mxCell>
        <mxCell id="pZgdfJ_zKTqpzOzUL0iS-20" value="" style="edgeStyle=orthogonalEdgeStyle;rounded=0;orthogonalLoop=1;jettySize=auto;html=1;fillColor=#d5e8d4;strokeColor=#82b366;" parent="1" source="pZgdfJ_zKTqpzOzUL0iS-5" edge="1">
          <mxGeometry relative="1" as="geometry">
            <mxPoint x="505" y="200" as="targetPoint" />
          </mxGeometry>
        </mxCell>
        <mxCell id="pZgdfJ_zKTqpzOzUL0iS-5" value="&#39;Evaluate all Checks&#39; API gets invoked" style="rounded=1;whiteSpace=wrap;html=1;absoluteArcSize=1;arcSize=14;strokeWidth=2;fillColor=#d5e8d4;strokeColor=#82b366;" parent="1" vertex="1">
          <mxGeometry x="425" y="140" width="160" height="40" as="geometry" />
        </mxCell>
        <mxCell id="J5mu4RAFbP3-2vr81SES-7" value="" style="edgeStyle=orthogonalEdgeStyle;rounded=0;orthogonalLoop=1;jettySize=auto;html=1;fillColor=#d5e8d4;strokeColor=#82b366;" parent="1" source="pZgdfJ_zKTqpzOzUL0iS-7" target="pZgdfJ_zKTqpzOzUL0iS-9" edge="1">
          <mxGeometry relative="1" as="geometry" />
        </mxCell>
        <mxCell id="pZgdfJ_zKTqpzOzUL0iS-7" value="System Load Data in Table" style="rounded=1;whiteSpace=wrap;html=1;absoluteArcSize=1;arcSize=14;strokeWidth=2;fillColor=#d5e8d4;strokeColor=#82b366;" parent="1" vertex="1">
          <mxGeometry x="240" y="350" width="160" height="40" as="geometry" />
        </mxCell>
        <mxCell id="pZgdfJ_zKTqpzOzUL0iS-9" value="Call RE with Table Data&amp;nbsp;" style="rounded=1;whiteSpace=wrap;html=1;absoluteArcSize=1;arcSize=14;strokeWidth=2;fillColor=#d5e8d4;strokeColor=#82b366;" parent="1" vertex="1">
          <mxGeometry x="240" y="410" width="160" height="40" as="geometry" />
        </mxCell>
        <mxCell id="pZgdfJ_zKTqpzOzUL0iS-11" value="" style="ellipse;html=1;shape=endState;fillColor=#000000;strokeColor=#ff0000;" parent="1" vertex="1">
          <mxGeometry x="300" y="610" width="40" height="40" as="geometry" />
        </mxCell>
        <mxCell id="J5mu4RAFbP3-2vr81SES-14" value="" style="edgeStyle=orthogonalEdgeStyle;rounded=0;orthogonalLoop=1;jettySize=auto;html=1;entryX=0;entryY=0.5;entryDx=0;entryDy=0;fillColor=#f8cecc;strokeColor=#b85450;" parent="1" source="pZgdfJ_zKTqpzOzUL0iS-14" target="J5mu4RAFbP3-2vr81SES-8" edge="1">
          <mxGeometry relative="1" as="geometry">
            <mxPoint x="175" y="580" as="targetPoint" />
            <Array as="points">
              <mxPoint x="220" y="300" />
              <mxPoint x="220" y="570" />
            </Array>
          </mxGeometry>
        </mxCell>
        <mxCell id="pZgdfJ_zKTqpzOzUL0iS-14" value="Success?" style="strokeWidth=2;html=1;shape=mxgraph.flowchart.decision;whiteSpace=wrap;fillColor=#fff2cc;strokeColor=#d6b656;" parent="1" vertex="1">
          <mxGeometry x="285" y="270" width="70" height="60" as="geometry" />
        </mxCell>
        <mxCell id="pZgdfJ_zKTqpzOzUL0iS-25" value="" style="edgeStyle=orthogonalEdgeStyle;rounded=0;orthogonalLoop=1;jettySize=auto;html=1;exitX=0.5;exitY=1;exitDx=0;exitDy=0;exitPerimeter=0;entryX=0.5;entryY=0;entryDx=0;entryDy=0;fillColor=#d5e8d4;strokeColor=#82b366;" parent="1" source="pZgdfJ_zKTqpzOzUL0iS-14" target="pZgdfJ_zKTqpzOzUL0iS-7" edge="1">
          <mxGeometry relative="1" as="geometry">
            <mxPoint x="350" y="330" as="sourcePoint" />
            <mxPoint x="480" y="440" as="targetPoint" />
          </mxGeometry>
        </mxCell>
        <mxCell id="pZgdfJ_zKTqpzOzUL0iS-26" value="&lt;font color=&quot;#82b366&quot;&gt;Yes&lt;/font&gt;" style="text;html=1;align=center;verticalAlign=middle;resizable=0;points=[];autosize=1;strokeColor=none;fillColor=none;labelBackgroundColor=default;" parent="1" vertex="1">
          <mxGeometry x="330" y="320" width="40" height="30" as="geometry" />
        </mxCell>
        <mxCell id="pZgdfJ_zKTqpzOzUL0iS-42" style="edgeStyle=orthogonalEdgeStyle;rounded=0;orthogonalLoop=1;jettySize=auto;html=1;entryX=0.5;entryY=0;entryDx=0;entryDy=0;" parent="1" target="pZgdfJ_zKTqpzOzUL0iS-11" edge="1">
          <mxGeometry relative="1" as="geometry">
            <mxPoint x="330" y="580" as="sourcePoint" />
          </mxGeometry>
        </mxCell>
        <mxCell id="pZgdfJ_zKTqpzOzUL0iS-38" value="" style="edgeStyle=orthogonalEdgeStyle;rounded=0;orthogonalLoop=1;jettySize=auto;html=1;fillColor=#d5e8d4;strokeColor=#82b366;" parent="1" source="pZgdfJ_zKTqpzOzUL0iS-9" target="pZgdfJ_zKTqpzOzUL0iS-37" edge="1">
          <mxGeometry relative="1" as="geometry">
            <mxPoint x="340" y="530" as="sourcePoint" />
            <mxPoint x="340" y="600" as="targetPoint" />
          </mxGeometry>
        </mxCell>
        <mxCell id="pZgdfJ_zKTqpzOzUL0iS-44" value="" style="edgeStyle=orthogonalEdgeStyle;rounded=0;orthogonalLoop=1;jettySize=auto;html=1;fillColor=#d5e8d4;strokeColor=#82b366;" parent="1" source="pZgdfJ_zKTqpzOzUL0iS-37" target="pZgdfJ_zKTqpzOzUL0iS-43" edge="1">
          <mxGeometry relative="1" as="geometry" />
        </mxCell>
        <mxCell id="pZgdfJ_zKTqpzOzUL0iS-37" value="RE Evaluate rules &amp;amp; Return new Fact" style="rounded=1;whiteSpace=wrap;html=1;absoluteArcSize=1;arcSize=14;strokeWidth=2;fillColor=#d5e8d4;strokeColor=#82b366;" parent="1" vertex="1">
          <mxGeometry x="240" y="470" width="160" height="40" as="geometry" />
        </mxCell>
        <mxCell id="pZgdfJ_zKTqpzOzUL0iS-45" value="" style="edgeStyle=orthogonalEdgeStyle;rounded=0;orthogonalLoop=1;jettySize=auto;html=1;exitX=0.5;exitY=1;exitDx=0;exitDy=0;fillColor=#d5e8d4;strokeColor=#82b366;" parent="1" source="pZgdfJ_zKTqpzOzUL0iS-43" edge="1">
          <mxGeometry relative="1" as="geometry">
            <mxPoint x="502.68" y="520" as="sourcePoint" />
            <mxPoint x="340.00050807568886" y="630" as="targetPoint" />
            <Array as="points">
              <mxPoint x="510" y="630" />
            </Array>
          </mxGeometry>
        </mxCell>
        <mxCell id="pZgdfJ_zKTqpzOzUL0iS-43" value="SER Receives new Fact &amp;amp; set check option&amp;nbsp;" style="rounded=1;whiteSpace=wrap;html=1;absoluteArcSize=1;arcSize=14;strokeWidth=2;fillColor=#d5e8d4;strokeColor=#82b366;" parent="1" vertex="1">
          <mxGeometry x="430" y="470" width="160" height="40" as="geometry" />
        </mxCell>
        <mxCell id="J5mu4RAFbP3-2vr81SES-5" value="" style="edgeStyle=orthogonalEdgeStyle;rounded=0;orthogonalLoop=1;jettySize=auto;html=1;fillColor=#d5e8d4;strokeColor=#82b366;" parent="1" source="J5mu4RAFbP3-2vr81SES-1" target="J5mu4RAFbP3-2vr81SES-4" edge="1">
          <mxGeometry relative="1" as="geometry" />
        </mxCell>
        <mxCell id="J5mu4RAFbP3-2vr81SES-1" value="For Check&lt;br&gt;1 to N" style="strokeWidth=2;html=1;shape=mxgraph.flowchart.decision;whiteSpace=wrap;fillColor=#fff2cc;strokeColor=#d6b656;" parent="1" vertex="1">
          <mxGeometry x="450" y="200" width="110" height="60" as="geometry" />
        </mxCell>
        <mxCell id="J5mu4RAFbP3-2vr81SES-4" value="Call DP API" style="rounded=1;whiteSpace=wrap;html=1;absoluteArcSize=1;arcSize=14;strokeWidth=2;fillColor=#d5e8d4;strokeColor=#82b366;" parent="1" vertex="1">
          <mxGeometry x="240" y="210" width="160" height="40" as="geometry" />
        </mxCell>
        <mxCell id="J5mu4RAFbP3-2vr81SES-6" style="edgeStyle=orthogonalEdgeStyle;rounded=0;orthogonalLoop=1;jettySize=auto;html=1;entryX=0.5;entryY=0;entryDx=0;entryDy=0;entryPerimeter=0;fillColor=#d5e8d4;strokeColor=#82b366;" parent="1" source="J5mu4RAFbP3-2vr81SES-4" target="pZgdfJ_zKTqpzOzUL0iS-14" edge="1">
          <mxGeometry relative="1" as="geometry" />
        </mxCell>
        <mxCell id="J5mu4RAFbP3-2vr81SES-8" value="Error Message" style="rounded=1;whiteSpace=wrap;html=1;absoluteArcSize=1;arcSize=14;strokeWidth=2;fillColor=#f8cecc;strokeColor=#b85450;" parent="1" vertex="1">
          <mxGeometry x="240" y="550" width="160" height="40" as="geometry" />
        </mxCell>
        <mxCell id="J5mu4RAFbP3-2vr81SES-9" style="edgeStyle=orthogonalEdgeStyle;rounded=0;orthogonalLoop=1;jettySize=auto;html=1;entryX=1;entryY=0.5;entryDx=0;entryDy=0;entryPerimeter=0;exitX=1;exitY=0.5;exitDx=0;exitDy=0;fillColor=#d5e8d4;strokeColor=#82b366;" parent="1" source="pZgdfJ_zKTqpzOzUL0iS-43" target="J5mu4RAFbP3-2vr81SES-1" edge="1">
          <mxGeometry relative="1" as="geometry" />
        </mxCell>
        <mxCell id="J5mu4RAFbP3-2vr81SES-15" value="&lt;font color=&quot;#b85450&quot;&gt;No&lt;/font&gt;" style="text;html=1;strokeColor=none;fillColor=none;align=center;verticalAlign=middle;whiteSpace=wrap;rounded=0;" parent="1" vertex="1">
          <mxGeometry x="225" y="270" width="60" height="30" as="geometry" />
        </mxCell>
      </root>
    </mxGraphModel>
  </diagram>
</mxfile>
